<svg width="60" height="60" viewBox="0 0 60 60" fill="none" xmlns="http://www.w3.org/2000/svg">
<rect width="60" height="60" rx="30" fill="#D6E6F2"/>
<path d="M31.7838 22.8648C31.7838 21.8797 30.9851 21.0811 30 21.0811V21.0811C29.0148 21.0811 28.2162 21.8797 28.2162 22.8648V24.6486C28.2162 26.6189 26.6189 28.2162 24.6486 28.2162H22.8648C21.8797 28.2162 21.0811 29.0148 21.0811 30V30C21.0811 30.9851 21.8797 31.7838 22.8648 31.7838H24.6486C26.6189 31.7838 28.2162 33.381 28.2162 35.3513V37.1351C28.2162 38.1203 29.0148 38.9189 30 38.9189V38.9189C30.9851 38.9189 31.7838 38.1203 31.7838 37.1351V35.3513C31.7838 33.381 33.381 31.7838 35.3513 31.7838H37.1351C38.1203 31.7838 38.9189 30.9851 38.9189 30V30C38.9189 29.0148 38.1203 28.2162 37.1351 28.2162H35.3513C33.381 28.2162 31.7838 26.6189 31.7838 24.6486V22.8648Z" fill="black"/>
</svg>
