<svg width="96" height="96" viewBox="0 0 96 96" fill="none" xmlns="http://www.w3.org/2000/svg">
<path d="M16 88C13.8 88 11.9167 87.2167 10.35 85.65C8.78333 84.0833 8 82.2 8 80V32C8 29.8 8.78333 27.9167 10.35 26.35C11.9167 24.7833 13.8 24 16 24H32L48 8L64 24H80C82.2 24 84.0833 24.7833 85.65 26.35C87.2167 27.9167 88 29.8 88 32V80C88 82.2 87.2167 84.0833 85.65 85.65C84.0833 87.2167 82.2 88 80 88H16ZM16 80H80V32H16V80ZM24 72H72L57 52L45 68L36 56L24 72ZM70 52C71.6667 52 73.0833 51.4167 74.25 50.25C75.4167 49.0833 76 47.6667 76 46C76 44.3333 75.4167 42.9167 74.25 41.75C73.0833 40.5833 71.6667 40 70 40C68.3333 40 66.9167 40.5833 65.75 41.75C64.5833 42.9167 64 44.3333 64 46C64 47.6667 64.5833 49.0833 65.75 50.25C66.9167 51.4167 68.3333 52 70 52ZM40.4 24H55.6L48 16.4L40.4 24Z" fill="black"/>
</svg>
