<svg width="96" height="96" viewBox="0 0 96 96" fill="none" xmlns="http://www.w3.org/2000/svg">
<g clip-path="url(#clip0_200_14)">
<path d="M92 44V36C68 28 48 8 48 8C48 8 28 28 4 36V44C4 49.96 7.72 55 12.96 57.04C12.8 67.04 11.68 78.76 8 88H88C84.32 78.76 83.2 67.04 83.04 57.04C88.28 55 92 49.96 92 44ZM48 18.84C53.32 23.4 61.96 30.2 72.44 36H23.56C34.04 30.2 42.68 23.4 48 18.84ZM52 44H64C64 47.32 61.32 50 58 50C54.68 50 52 47.32 52 44ZM38 50C34.68 50 32 47.32 32 44H44C44 47.32 41.32 50 38 50ZM24 44C24 47.32 21.32 50 18 50C14.68 50 12 47.32 12 44H24ZM18.64 80C20.2 72.56 20.8 64.72 20.92 57.68C23.64 57.08 26.08 55.72 27.96 53.76C28.96 54.76 30.12 55.56 31.36 56.24C30.96 63.72 30.32 72.24 29.28 79.96H18.64V80ZM37.4 80C38.36 72.68 38.96 64.88 39.32 57.88C42.68 57.56 45.76 56.08 48 53.8C50.24 56.08 53.28 57.56 56.68 57.88C57.08 64.88 57.64 72.68 58.6 80H37.4ZM66.68 80C65.6 72.24 64.96 63.72 64.6 56.28C65.84 55.6 67.04 54.8 68 53.8C69.88 55.72 72.32 57.12 75.04 57.72C75.16 64.76 75.76 72.6 77.32 80.04H66.68V80ZM78 50C74.68 50 72 47.32 72 44H84C84 47.32 81.32 50 78 50Z" fill="black"/>
</g>
<defs>
<clipPath id="clip0_200_14">
<rect width="96" height="96" fill="white"/>
</clipPath>
</defs>
</svg>
