<svg width="96" height="96" viewBox="0 0 96 96" fill="none" xmlns="http://www.w3.org/2000/svg">
<g clip-path="url(#clip0_294_17)">
<path d="M76 30C78.2091 30 80 28.2091 80 26C80 23.7909 78.2091 22 76 22C73.7909 22 72 23.7909 72 26C72 28.2091 73.7909 30 76 30Z" fill="black"/>
<path d="M60 30C62.2091 30 64 28.2091 64 26C64 23.7909 62.2091 22 60 22C57.7909 22 56 23.7909 56 26C56 28.2091 57.7909 30 60 30Z" fill="black"/>
<path d="M67.96 36C62.44 36 57.96 39.36 57.96 43.52H77.96C77.96 39.36 73.48 36 67.96 36Z" fill="black"/>
<path d="M4 64C4 77.24 14.76 88 28 88C41.24 88 52 77.24 52 64V36H4V64ZM12 44H44V64C44 72.84 36.84 80 28 80C19.16 80 12 72.84 12 64V44Z" fill="black"/>
<path d="M44 8V30H52V16H84V36C84 44.84 76.84 52 68 52C64.2 52 60.76 50.6 58 48.4V57.8C61.04 59.2 64.44 60 68 60C81.24 60 92 49.24 92 36V8H44Z" fill="black"/>
<path d="M20 58C22.2091 58 24 56.2091 24 54C24 51.7909 22.2091 50 20 50C17.7909 50 16 51.7909 16 54C16 56.2091 17.7909 58 20 58Z" fill="black"/>
<path d="M36 58C38.2091 58 40 56.2091 40 54C40 51.7909 38.2091 50 36 50C33.7909 50 32 51.7909 32 54C32 56.2091 33.7909 58 36 58Z" fill="black"/>
<path d="M28 71.52C33.52 71.52 38 68.16 38 64H18C18 68.16 22.48 71.52 28 71.52Z" fill="black"/>
</g>
<defs>
<clipPath id="clip0_294_17">
<rect width="96" height="96" fill="white"/>
</clipPath>
</defs>
</svg>
